# xmcd CD database file
#
# Track frame offsets:
#	150
#	15375
#	26025
#	52443
#	79106
#	103256
#	127264
#	141159
#	156138
#	177188
#	191777
#	204816
#	220451
#	234779
#	246488
#	268106
#	282851
#	307500
#
# Disc length: 4758 seconds
#
# Revision: 0
# Processed by: cddbd v1.5PL3 Copyright (c) Steve Scherf et al.
# Submitted via: CDex 1.51
#
DISCID=06129412
DTITLE=Various Artist - CGs Jazz Sampler (Vol.1)
DYEAR=2002
DGENRE=Jazz
TTITLE0=Miles Davis: Summertime
TTITLE1=Chet Baker: My Funny Valentine
TTITLE2=Ella Fitzgerald: So Danco Samba (Jazz Samba)
TTITLE3=Stan Getz and Charlie Byrd: Desafinado
TTITLE4=Oscar Peterson: Triste
TTITLE5=Dizzy Gillespie: Samba De Una Nota So
TTITLE6=Ella Fitzgerald and Louis Armstrong: Dream A Little Dream Of Me
TTITLE7=Peggy Lee: Fever
TTITLE8=Dave Grusin: Peter Gunn
TTITLE9=Sarah Vaughan: Summertime
TTITLE10=Antonio Carlos Jobim: Wave
TTITLE11=Quincy Jones: Take Five
TTITLE12=Vince Guaraldi Trio: Cast Your Fate To The Wind
TTITLE13=Herbie Mann: Comin' Home Baby
TTITLE14=Stan Getz and Chick Corea: O Grande Amor
TTITLE15=Joe Henderson and Herbie Hancock: Happy Madness
TTITLE16=Joe Henderson: Vivo Sonhando (Dreamer)
TTITLE17=Miles Davis: Autumn Leaves
EXTD=YEAR: 2002
EXTT0=
EXTT1=
EXTT2=
EXTT3=
EXTT4=
EXTT5=
EXTT6=
EXTT7=
EXTT8=
EXTT9=
EXTT10=
EXTT11=
EXTT12=
EXTT13=
EXTT14=
EXTT15=
EXTT16=
EXTT17=
PLAYORDER=
